<svg xmlns="http://www.w3.org/2000/svg" width="21.6" height="20.508" viewBox="0 0 21.6 20.508">
    <defs>
        <style>
            .cls-1,.cls-2{fill:none;stroke:#f35c01;stroke-miterlimit:10;stroke-width:1.5px}.cls-2{stroke-linecap:round}
        </style>
    </defs>
    <g id="Layer_2" transform="translate(.75 .753)">
        <g id="Layer_1">
            <path id="Path_78" d="M21.29 69.7v1.581a8.027 8.027 0 0 0 5.068 7.408v.911a.887.887 0 0 0 .9.875h4.537a.888.888 0 0 0 .9-.875v-.91a8.028 8.028 0 0 0 5.067-7.408V69.7z" class="cls-1" transform="translate(-19.308 -61.466)"/>
            <path id="Path_79" d="M6.384 49.89H4.073C3.48 49.89 3 50.582 3 51.435s.48 1.545 1.073 1.545h17.955c.593 0 1.073-.692 1.073-1.545s-.48-1.545-1.073-1.545H6.384" class="cls-1" transform="translate(-3 -44.808)"/>
            <path id="Path_80" d="M117.75 8.083l3.008-4.529a1.237 1.237 0 0 1 1.715-.346l.283.186a1.238 1.238 0 0 1 .346 1.715l-1.976 2.974" class="cls-1" transform="translate(-105.313 -3.002)"/>
            <path id="Line_27" d="M0 0L11.005 0" class="cls-2" transform="translate(2.513 11.257)"/>
            <path id="Line_28" d="M0 0L5.548 0" class="cls-2" transform="translate(3.628 13.926)"/>
        </g>
    </g>
</svg>
