<svg xmlns="http://www.w3.org/2000/svg" width="88" height="88" viewBox="0 0 88 88"><defs><style>.a{fill:#fff;}.b,.f{fill:none;}.b{stroke:#fff;stroke-width:1.5px;}.c{fill:#f35c01;}.d{fill:#004b9d;}.e{stroke:none;}</style></defs><g transform="translate(-1201 -702)"><circle class="a" cx="36" cy="36" r="36" transform="translate(1209 710)"/><g class="b" transform="translate(1201 702)"><circle class="e" cx="44" cy="44" r="44"/><circle class="f" cx="44" cy="44" r="43.25"/></g><g transform="translate(1197.137 684.409) rotate(13)"><path class="c" d="M72.125,46.37H60.88l4.146-17.3L48.241,52.188H59.486l-4.146,17.3Z"/><path class="d" d="M55.34,71.241a1.751,1.751,0,0,1-1.7-2.158l3.629-15.145H48.241a1.75,1.75,0,0,1-1.416-2.778L63.609,28.039a1.75,1.75,0,0,1,3.118,1.436L63.1,44.62h9.026A1.75,1.75,0,0,1,73.541,47.4L56.757,70.519A1.751,1.751,0,0,1,55.34,71.241Zm-3.666-20.8h7.812a1.751,1.751,0,0,1,1.7,2.158l-2.1,8.748,9.6-13.224H60.88a1.751,1.751,0,0,1-1.7-2.158l2.1-8.749Z"/></g></g></svg>