<svg xmlns="http://www.w3.org/2000/svg" viewBox="0 0 64 63.27"><defs><style>.cls-1{fill:#54c0f1;}.cls-2{fill:#ff625d;}.cls-3{fill:#1a171b;}</style></defs><g id="Layer_2" data-name="Layer 2"><g id="layer_1-2" data-name="layer 1"><path class="cls-1" d="M57.74,35.75a5,5,0,0,0-1.23.15v-.17a9.29,9.29,0,0,0-8-13.89,9.08,9.08,0,0,0-7.06,3.38h0a14.2,14.2,0,0,0-7.3-9.49V5.86h3.73L32,0,26.14,5.86h3.73v8.48A14,14,0,0,0,13.66,28.2l0,0a9.31,9.31,0,0,0-3.35-.61,9.64,9.64,0,0,0,0,19.27h6.08V45.73a.78.78,0,0,1,.78-.78h2.1A12.49,12.49,0,0,1,20,42.22l-1.82-1a.8.8,0,0,1-.29-1.07l1.18-2a.78.78,0,0,1,1.07-.29l1.82,1.06a13,13,0,0,1,2-2L22.88,35A.78.78,0,0,1,23.17,34l2-1.17a.78.78,0,0,1,1.07.28l1.05,1.82a12.49,12.49,0,0,1,2.73-.73v-2.1a.78.78,0,0,1,.78-.78h2.34a.78.78,0,0,1,.78.78v2.1a12.49,12.49,0,0,1,2.73.73l1-1.82a.78.78,0,0,1,1.07-.28l2,1.17A.78.78,0,0,1,41.12,35l-1,1.82a13,13,0,0,1,2,2l1.83-1.06a.77.77,0,0,1,1.06.29l1.18,2a.8.8,0,0,1-.29,1.07l-1.82,1A12.49,12.49,0,0,1,44.75,45h2.1a.78.78,0,0,1,.78.78V46.9H57.74a5.58,5.58,0,0,0,0-11.15Z"/><path class="cls-2" d="M12.46,3.91,6.6,9.77l5.86,5.86V11.9H18v6.23a14.07,14.07,0,0,1,4.27-2.85V7.64H12.46Z"/><path class="cls-2" d="M57.41,9.77,51.55,3.91V7.64H41.77V24.87A9.07,9.07,0,0,1,46,22.2V11.9h5.51v3.73Z"/><circle class="cls-2" cx="32" cy="46.9" r="7.33" transform="translate(-1.41 0.99) rotate(-1.74)"/><path class="cls-3" d="M27.17,20.67h.53a7.56,7.56,0,0,1,7.53,6.72A.72.72,0,0,0,36,28H36a.73.73,0,0,0,.64-.81,9,9,0,0,0-9-8l-.62,0a.74.74,0,0,0-.68.78A.72.72,0,0,0,27.17,20.67Z"/><path class="cls-3" d="M21.16,23.84a.72.72,0,0,0,.58-.28,7.35,7.35,0,0,1,2.3-2,.75.75,0,0,0,.29-1,.74.74,0,0,0-1-.28,9.09,9.09,0,0,0-2.75,2.34.73.73,0,0,0,.58,1.18Z"/><path class="cls-3" d="M46.85,49.59a1.52,1.52,0,0,0,1.52-1.52v-.44h9.37a6.31,6.31,0,0,0,0-12.61h-.07a10.22,10.22,0,0,0,.78-3.91,10,10,0,0,0-3.25-7.38V19.3h5.4v1.94l2.67-2.67L60.6,15.9v1.93H54.47a.73.73,0,0,0-.73.74v4.05A9.79,9.79,0,0,0,41.8,23.78,14.77,14.77,0,0,0,13,27.25a10.35,10.35,0,0,0-2.67-.35h0V18.57a.73.73,0,0,0-.73-.74H3.4V15.9L.73,18.57,3.4,21.24V19.3H8.8V27a10.36,10.36,0,0,0,1.49,20.61h5.34v.44a1.52,1.52,0,0,0,1.52,1.52h1.49a13.52,13.52,0,0,0,.44,1.66L17.79,52a1.48,1.48,0,0,0-.7.92,1.49,1.49,0,0,0,.15,1.15l1.17,2a1.5,1.5,0,0,0,2.07.55l1.29-.74A14,14,0,0,0,23,57.13l-.74,1.29a1.52,1.52,0,0,0,.55,2.07l2,1.17a1.52,1.52,0,0,0,2.07-.55l.75-1.29a16.3,16.3,0,0,0,1.66.45v1.48a1.52,1.52,0,0,0,1.52,1.52h2.34a1.52,1.52,0,0,0,1.52-1.52V60.27a16.3,16.3,0,0,0,1.66-.45l.75,1.29a1.52,1.52,0,0,0,2.07.55l2-1.17a1.48,1.48,0,0,0,.7-.92,1.45,1.45,0,0,0-.15-1.15L41,57.13a14,14,0,0,0,1.22-1.22l1.29.74a1.49,1.49,0,0,0,1.15.15,1.48,1.48,0,0,0,.92-.7l1.17-2a1.49,1.49,0,0,0,.15-1.15,1.48,1.48,0,0,0-.7-.92l-1.29-.75a13.52,13.52,0,0,0,.44-1.66ZM15.63,45.73v.44H10.29a8.91,8.91,0,0,1,0-17.81,8.72,8.72,0,0,1,3.09.56,8.9,8.9,0,0,1,4.37,3.57.72.72,0,0,0,.62.34.71.71,0,0,0,.39-.12.74.74,0,0,0,.23-1,10.41,10.41,0,0,0-4.58-3.93,13.3,13.3,0,0,1,26.3-2.38A13.79,13.79,0,0,1,41,28.33c0,.19,0,.38,0,.57a.73.73,0,0,0,.7.76h0a.73.73,0,0,0,.73-.7c0-.21,0-.42,0-.63a15.06,15.06,0,0,0-.29-2.85,8.37,8.37,0,0,1,6.31-2.9,8.54,8.54,0,0,1,7.34,12.79h0a8.24,8.24,0,0,1-1.53,2,.74.74,0,0,0,0,1,.73.73,0,0,0,.53.22.73.73,0,0,0,.51-.2,10.48,10.48,0,0,0,1.46-1.79,4.83,4.83,0,1,1,.93,9.58H48.37v-.44a1.52,1.52,0,0,0-1.52-1.52H45.36a13.52,13.52,0,0,0-.44-1.66l1.29-.75a1.52,1.52,0,0,0,.55-2.07l-1.17-2a1.52,1.52,0,0,0-2.07-.55l-1.29.74A14,14,0,0,0,41,36.67l.74-1.29a1.45,1.45,0,0,0,.15-1.15,1.5,1.5,0,0,0-.7-.92l-2-1.17A1.49,1.49,0,0,0,38,32a1.46,1.46,0,0,0-.92.71L36.35,34a13.52,13.52,0,0,0-1.66-.44V32.05a1.52,1.52,0,0,0-1.52-1.52H30.83a1.52,1.52,0,0,0-1.52,1.52v1.49a13.52,13.52,0,0,0-1.66.44L26.9,32.7a1.51,1.51,0,0,0-2.07-.56l-2,1.17a1.52,1.52,0,0,0-.55,2.07L23,36.67a14,14,0,0,0-1.22,1.22l-1.29-.74a1.52,1.52,0,0,0-2.07.55l-1.17,2a1.52,1.52,0,0,0,.55,2.07l1.29.75a13.52,13.52,0,0,0-.44,1.66H17.15A1.52,1.52,0,0,0,15.63,45.73Zm28,6.49,1.84,1.12-1.24,2-1.82-1.05a.74.74,0,0,0-.94.18,12.38,12.38,0,0,1-1.88,1.88.74.74,0,0,0-.18.94l1,1.89-2.1,1.15-1-1.82a.74.74,0,0,0-.9-.31,12.46,12.46,0,0,1-2.58.69.73.73,0,0,0-.62.72l0,2.15-2.39,0v-2.1a.73.73,0,0,0-.62-.72,12.46,12.46,0,0,1-2.58-.69.58.58,0,0,0-.26-.05.74.74,0,0,0-.64.36l-1.11,1.84-2.05-1.24,1.05-1.82a.74.74,0,0,0-.18-.94,12.38,12.38,0,0,1-1.88-1.88.74.74,0,0,0-.94-.18l-1.89,1-1.15-2.1,1.82-1.05a.73.73,0,0,0,.31-.9A13.12,13.12,0,0,1,20,48.74a.73.73,0,0,0-.72-.62l-2.15,0,0-2.39h2.1a.73.73,0,0,0,.72-.62,12.85,12.85,0,0,1,.69-2.57.74.74,0,0,0-.31-.91l-1.84-1.12,1.24-2,1.82,1a.73.73,0,0,0,.94-.18,12.85,12.85,0,0,1,1.88-1.88.74.74,0,0,0,.18-.94l-1-1.89,2.1-1.15,1.05,1.82a.74.74,0,0,0,.9.32,12.49,12.49,0,0,1,2.58-.7.73.73,0,0,0,.62-.72l0-2.15,2.39,0v2.1a.73.73,0,0,0,.62.72,12.24,12.24,0,0,1,2.57.7.75.75,0,0,0,.91-.32l1.11-1.84,2,1.24-1,1.82a.74.74,0,0,0,.18.94,12.85,12.85,0,0,1,1.88,1.88.73.73,0,0,0,.94.18l1.89-1,1.15,2.1-1.82,1a.75.75,0,0,0-.32.91,12.24,12.24,0,0,1,.7,2.57.73.73,0,0,0,.72.62h2.1l0,0,0,2.39h-2.1a.73.73,0,0,0-.72.62,12.49,12.49,0,0,1-.7,2.58A.74.74,0,0,0,43.65,52.22Z"/><path class="cls-3" d="M32,38.84a8.06,8.06,0,1,0,8.06,8.06A8.07,8.07,0,0,0,32,38.84ZM32,53.5a6.6,6.6,0,1,1,6.59-6.6A6.61,6.61,0,0,1,32,53.5Z"/><path class="cls-3" d="M10.14,61.8H1.47V48A.74.74,0,0,0,0,48V62.53a.74.74,0,0,0,.73.74h9.41a.74.74,0,0,0,0-1.47Z"/><path class="cls-3" d="M18.12,61.8H15a.74.74,0,0,0,0,1.47h3.1a.74.74,0,1,0,0-1.47Z"/><path class="cls-3" d="M63.27,57.28a.74.74,0,0,0-.74.74V61.8H48.75a.74.74,0,1,0,0,1.47H63.27a.74.74,0,0,0,.73-.74V58A.74.74,0,0,0,63.27,57.28Z"/><path class="cls-3" d="M63.27,49.3a.73.73,0,0,0-.74.73v3.1a.74.74,0,0,0,1.47,0V50A.73.73,0,0,0,63.27,49.3Z"/></g></g></svg>