<svg xmlns="http://www.w3.org/2000/svg" viewBox="0 0 64 64"><defs><style>.cls-1{fill:#ff625d;}.cls-2{fill:#54c0f1;}.cls-3{fill:#1a171b;}</style></defs><g id="Layer_2" data-name="Layer 2"><g id="layer_1-2" data-name="layer 1"><path class="cls-1" d="M46.66.73a4.89,4.89,0,1,0,4.89,4.89A4.89,4.89,0,0,0,46.66.73Z"/><path class="cls-1" d="M17.35,7.58a2,2,0,1,0-2-2A2,2,0,0,0,17.35,7.58Z"/><circle class="cls-1" cx="17.35" cy="58.38" r="4.89"/><path class="cls-2" d="M37.41,28.61A5.16,5.16,0,0,0,32,23a5.16,5.16,0,0,0-5.41,5.57,7,7,0,0,0,2.59,5.61L29,35.56a2.53,2.53,0,0,1-1.43,1.7L32,40.41l4.48-3.15a2.55,2.55,0,0,1-1.43-1.7l-.22-1.34A7,7,0,0,0,37.41,28.61Z"/><path class="cls-2" d="M5.62,27.11A4.89,4.89,0,1,0,10.51,32,4.89,4.89,0,0,0,5.62,27.11Z"/><circle class="cls-2" cx="58.38" cy="32" r="1.95"/><path class="cls-2" d="M46.66,53.49a4.89,4.89,0,1,0,4.89,4.89A4.89,4.89,0,0,0,46.66,53.49Z"/><path class="cls-3" d="M49.41,53.48,58.1,37.61h.28a5.62,5.62,0,0,0,0-11.24H58.1L49.41,10.52a5.62,5.62,0,1,0-8.36-5.14H23a5.62,5.62,0,1,0-8.37,5.14L5.9,26.39H5.62a5.62,5.62,0,0,0,0,11.24H5.9l8.69,15.87A5.62,5.62,0,1,0,23,58.62h18.1a5.62,5.62,0,1,0,8.36-5.14ZM48,52.94a5.28,5.28,0,0,0-1.38-.18,5.69,5.69,0,0,0-2.07.39L40.1,45.06a15.38,15.38,0,0,0,7.25-12.33h5.46a5.62,5.62,0,0,0,3.78,4.59ZM32,34.46c-2.58,0-4.68-2.62-4.68-5.85,0-3.56,2.42-4.83,4.68-4.83s4.68,1.27,4.68,4.83C36.68,31.84,34.58,34.46,32,34.46Zm3.21,2.8L32,39.51l-3.2-2.25a3.29,3.29,0,0,0,.86-1.52l.08-.33a5.17,5.17,0,0,0,4.52,0l.08.33A3.22,3.22,0,0,0,35.21,37.26Zm2.94-8.65c0-3.77-2.47-6.3-6.15-6.3s-6.14,2.53-6.14,6.3a7.83,7.83,0,0,0,2.58,6l-.2.81a1.82,1.82,0,0,1-1,1.21h0a2.13,2.13,0,0,1-.43.13l-3.16.55a4.49,4.49,0,0,0-3.25,2.38,13.92,13.92,0,1,1,23.24,0,4.48,4.48,0,0,0-3.25-2.39l-3.16-.55a2.13,2.13,0,0,1-.43-.13h0a1.82,1.82,0,0,1-1-1.21l-.2-.81A7.84,7.84,0,0,0,38.15,28.61ZM23.88,38.71,27,38.16c.12,0,.24-.06.36-.09L31.58,41a.74.74,0,0,0,.42.13.7.7,0,0,0,.42-.13l4.19-2.94a3.58,3.58,0,0,0,.35.09l3.16.55A3,3,0,0,1,42.58,41a13.88,13.88,0,0,1-21.15,0A3,3,0,0,1,23.88,38.71Zm34.5-10.87A4.16,4.16,0,1,1,54.22,32,4.16,4.16,0,0,1,58.38,27.84Zm-1.79-1.16a5.62,5.62,0,0,0-3.78,4.59H47.35A15.37,15.37,0,0,0,40.1,18.94l4.49-8.09a5.69,5.69,0,0,0,2.07.39A5.28,5.28,0,0,0,48,11.06ZM46.66,1.47A4.16,4.16,0,1,1,42.5,5.62,4.15,4.15,0,0,1,46.66,1.47ZM41.17,6.84a5.66,5.66,0,0,0,2.14,3.29l-4.49,8.1a15.14,15.14,0,0,0-13.63,0l-4.5-8.1a5.66,5.66,0,0,0,2.14-3.29Zm-28-1.22a4.16,4.16,0,1,1,4.16,4.16A4.15,4.15,0,0,1,13.19,5.62ZM16,11.06a5.35,5.35,0,0,0,1.39.18,5.44,5.44,0,0,0,2.06-.4l4.5,8.1a15.38,15.38,0,0,0-7.26,12.33H11.19a5.63,5.63,0,0,0-3.77-4.59ZM5.62,36.16A4.16,4.16,0,1,1,9.78,32,4.17,4.17,0,0,1,5.62,36.16Zm1.8,1.16a5.63,5.63,0,0,0,3.77-4.59h5.46a15.37,15.37,0,0,0,7.26,12.33l-4.5,8.09a5.63,5.63,0,0,0-2.06-.39,5.35,5.35,0,0,0-1.39.18Zm9.93,25.21a4.16,4.16,0,1,1,4.15-4.15A4.15,4.15,0,0,1,17.35,62.53Zm5.48-5.37a5.66,5.66,0,0,0-2.14-3.29l4.5-8.1a15.14,15.14,0,0,0,13.63,0l4.49,8.1a5.66,5.66,0,0,0-2.14,3.29Zm23.83,5.37a4.16,4.16,0,1,1,4.15-4.15A4.16,4.16,0,0,1,46.66,62.53Z"/><path class="cls-3" d="M.73,14.25a.73.73,0,0,0,.73-.73v-12H8.91A.74.74,0,1,0,8.91,0H.73A.73.73,0,0,0,0,.73V13.52A.73.73,0,0,0,.73,14.25Z"/><path class="cls-3" d="M.73,23.05a.73.73,0,0,0,.73-.74v-3.9a.73.73,0,1,0-1.46,0v3.9A.74.74,0,0,0,.73,23.05Z"/><path class="cls-3" d="M63.27,52.68a.73.73,0,0,0-.74.73v9.12H56.06a.74.74,0,0,0,0,1.47h7.21a.73.73,0,0,0,.73-.73V53.41A.73.73,0,0,0,63.27,52.68Z"/><path class="cls-3" d="M63.27,43.88a.74.74,0,0,0-.74.74v3.9a.74.74,0,1,0,1.47,0v-3.9A.74.74,0,0,0,63.27,43.88Z"/></g></g></svg>