<svg xmlns="http://www.w3.org/2000/svg" viewBox="0 0 64 64"><defs><style>.cls-1{fill:#ff625d;}.cls-2{fill:#54c0f1;}.cls-3{fill:#1a171b;}</style></defs><g id="Layer_2" data-name="Layer 2"><g id="layer_1-2" data-name="layer 1"><polygon class="cls-1" points="57.4 43.73 6.59 43.73 0.73 56.43 63.27 56.43 57.4 43.73"/><path class="cls-1" d="M42.75,8.92A3.42,3.42,0,1,0,40.2,3.24a3.41,3.41,0,0,0,2.55,5.68Z"/><path class="cls-2" d="M44.79,8.24a3.42,3.42,0,0,1-5.46-2.73,3.39,3.39,0,0,1,.87-2.27,14.71,14.71,0,1,0,4.59,5Z"/><path class="cls-3" d="M12.46,51.46a.73.73,0,1,0,0,1.46.73.73,0,1,0,0-1.46Z"/><path class="cls-3" d="M22.23,51.46a.73.73,0,1,0,0,1.46.73.73,0,1,0,0-1.46Z"/><path class="cls-3" d="M17.34,51.46a.73.73,0,1,0,.73.73A.73.73,0,0,0,17.34,51.46Z"/><circle class="cls-3" cx="7.57" cy="52.19" r="0.73"/><circle class="cls-3" cx="46.65" cy="52.19" r="0.73"/><path class="cls-3" d="M41.77,51.46a.73.73,0,1,0,.73.73A.73.73,0,0,0,41.77,51.46Z"/><path class="cls-3" d="M55.69,52.19a.74.74,0,0,0,1.47,0,.74.74,0,0,0-1.47,0Z"/><path class="cls-3" d="M51.54,51.46a.73.73,0,1,0,.73.73A.73.73,0,0,0,51.54,51.46Z"/><circle class="cls-3" cx="27.11" cy="52.19" r="0.73"/><path class="cls-3" d="M32,51.46a.73.73,0,1,0,0,1.46.73.73,0,1,0,0-1.46Z"/><path class="cls-3" d="M36.88,51.46a.73.73,0,1,0,0,1.46.73.73,0,1,0,0-1.46Z"/><path class="cls-3" d="M34.49,47.23a.73.73,0,1,0,.73.73A.73.73,0,0,0,34.49,47.23Z"/><path class="cls-3" d="M14.59,47.23a.73.73,0,1,0,0,1.46.73.73,0,0,0,0-1.46Z"/><path class="cls-3" d="M24.54,47.23a.73.73,0,1,0,.74.73A.74.74,0,0,0,24.54,47.23Z"/><path class="cls-3" d="M44.44,47.23a.73.73,0,1,0,.73.73A.74.74,0,0,0,44.44,47.23Z"/><path class="cls-3" d="M39.46,47.23a.73.73,0,1,0,0,1.46.73.73,0,1,0,0-1.46Z"/><path class="cls-3" d="M49.41,47.23a.73.73,0,1,0,.73.73A.73.73,0,0,0,49.41,47.23Z"/><path class="cls-3" d="M54.38,47.23a.73.73,0,1,0,0,1.46.73.73,0,1,0,0-1.46Z"/><path class="cls-3" d="M19.56,47.23a.73.73,0,1,0,.73.73A.73.73,0,0,0,19.56,47.23Z"/><path class="cls-3" d="M9.61,47.23a.73.73,0,1,0,.73.73A.73.73,0,0,0,9.61,47.23Z"/><path class="cls-3" d="M29.52,47.23a.73.73,0,1,0,.73.73A.74.74,0,0,0,29.52,47.23Z"/><path class="cls-3" d="M63.93,56.12,58.14,43.57V17.35a2.7,2.7,0,0,0-2.69-2.69h-8.1a15.13,15.13,0,0,0-1.67-6.21,4.14,4.14,0,0,0-5.6-6.1A15.1,15.1,0,0,0,32,0,15.39,15.39,0,0,0,16.65,14.66H8.55a2.7,2.7,0,0,0-2.69,2.69V43.57L.07,56.12a.67.67,0,0,0-.07.31v4.88A2.7,2.7,0,0,0,2.69,64H61.31A2.7,2.7,0,0,0,64,61.31V56.43A.67.67,0,0,0,63.93,56.12Zm-18-41.46H39.33A13.76,13.76,0,0,1,40.8,9.15a4.13,4.13,0,0,0,2,.51,4.08,4.08,0,0,0,1.74-.4A13.78,13.78,0,0,1,45.88,14.66Zm0,1.46a13.93,13.93,0,0,1-3.28,8.25,13.84,13.84,0,0,1-3.27-8.25ZM42.75,2.82a2.69,2.69,0,1,1-2.69,2.69A2.68,2.68,0,0,1,42.75,2.82Zm-10-1.33a13.76,13.76,0,0,1,6.41,2,4,4,0,0,0,.49,4.74,15.23,15.23,0,0,0-1.77,6.44H32.73Zm0,14.63h5.14a15.36,15.36,0,0,0,3.73,9.33,13.85,13.85,0,0,1-8.87,3.83ZM31.27,1.5V14.66H26.12a15.22,15.22,0,0,0-3.73-9.33A13.86,13.86,0,0,1,31.27,1.5Zm0,14.62V29.28a13.86,13.86,0,0,1-8.88-3.83,15.24,15.24,0,0,0,3.73-9.33ZM21.39,6.41a13.84,13.84,0,0,1,3.27,8.25H18.11A13.87,13.87,0,0,1,21.39,6.41Zm3.27,9.71a13.85,13.85,0,0,1-3.27,8.24,13.86,13.86,0,0,1-3.28-8.24ZM7.33,17.35a1.23,1.23,0,0,1,1.22-1.23h8.1A15.38,15.38,0,0,0,31.27,30.74v5.41H11.48a.74.74,0,0,0,0,1.47h41a.74.74,0,0,0,0-1.47H32.73V30.74A15.39,15.39,0,0,0,47.35,16.12h8.1a1.23,1.23,0,0,1,1.22,1.23V43H7.33ZM7.06,44.46H56.93l5.19,11.23H1.88ZM61.31,62.53H2.69a1.22,1.22,0,0,1-1.23-1.22V57.16H62.53v4.15A1.21,1.21,0,0,1,61.31,62.53Z"/><path class="cls-3" d="M34.93,59.11H29.07a.74.74,0,1,0,0,1.47h5.86a.74.74,0,0,0,0-1.47Z"/><path class="cls-3" d="M63.27,20.36a.74.74,0,0,0-.74.73V35.75a.74.74,0,0,0,1.47,0V21.09A.73.73,0,0,0,63.27,20.36Z"/><path class="cls-3" d="M63.27,38.92a.74.74,0,0,0-.74.74v2.93a.74.74,0,0,0,1.47,0V39.66A.74.74,0,0,0,63.27,38.92Z"/><path class="cls-3" d="M.73,29.8a.73.73,0,0,0,.73-.73V26.14a.72.72,0,0,0-.73-.73.73.73,0,0,0-.73.73v2.93A.73.73,0,0,0,.73,29.8Z"/><path class="cls-3" d="M.73,23a.73.73,0,0,0,.73-.73v-12h10a.73.73,0,0,0,0-1.46H.73A.73.73,0,0,0,0,9.53v12.7A.73.73,0,0,0,.73,23Z"/><path class="cls-3" d="M50.26,24.78a.74.74,0,0,0-1,.28,19.84,19.84,0,0,1-6,6.57.74.74,0,0,0-.18,1,.72.72,0,0,0,.6.32.73.73,0,0,0,.42-.14,21.39,21.39,0,0,0,6.4-7A.73.73,0,0,0,50.26,24.78Z"/><path class="cls-3" d="M52.22,19a.74.74,0,0,0-.87.57,17.35,17.35,0,0,1-.55,2,.75.75,0,0,0,.47.93.91.91,0,0,0,.23,0,.74.74,0,0,0,.7-.5c.23-.71.43-1.45.59-2.19A.74.74,0,0,0,52.22,19Z"/><path class="cls-2" d="M38.35,34.44H25.65a2.45,2.45,0,0,0,0,4.89h12.7a2.45,2.45,0,0,0,0-4.89Z"/></g></g></svg>