<svg xmlns="http://www.w3.org/2000/svg" viewBox="0 0 64 64"><defs><style>.cls-1{fill:#54c0f1;}.cls-2{fill:#ff625d;}.cls-3{fill:#1a171b;}</style></defs><g id="Layer_2" data-name="Layer 2"><g id="layer_1-2" data-name="layer 1"><path class="cls-1" d="M60.33.73H3.66A2.94,2.94,0,0,0,.73,3.66v45a2.93,2.93,0,0,0,2.93,2.93h15.8A3.63,3.63,0,0,1,19,49.16a3.23,3.23,0,0,1,2-2.5H8.55v-41h46.9v41H47v4.88H60.33a2.94,2.94,0,0,0,2.94-2.93V3.66A2.94,2.94,0,0,0,60.33.73Z"/><polygon class="cls-1" points="16.37 20.27 11.48 26.14 16.37 32 16.37 20.27"/><rect class="cls-2" x="33.27" y="57.41" width="13.68" height="5.86"/><polygon class="cls-2" points="47.63 20.27 47.63 32 52.52 26.14 47.63 20.27"/><path class="cls-3" d="M44,61.07a.74.74,0,1,0-.73-.73A.73.73,0,0,0,44,61.07Z"/><path class="cls-3" d="M60.33,0H3.66A3.66,3.66,0,0,0,0,3.66v45a3.66,3.66,0,0,0,3.66,3.66H21.4a24.59,24.59,0,0,1,4,.38,12.09,12.09,0,0,1,7.11,5v5.65a.73.73,0,0,0,.73.73H47a.73.73,0,0,0,.73-.73v-11H60.33A3.66,3.66,0,0,0,64,48.61V3.66A3.66,3.66,0,0,0,60.33,0ZM25.72,51.21a31.11,31.11,0,0,0-5.81-.41,4.86,4.86,0,0,1-.16-1.61c.05-1.21,2-2.6,4.86-2.73a12.62,12.62,0,0,1,4.49.69l.32.1a.72.72,0,0,0,.65-.11.75.75,0,0,0,.29-.59V26.42A1.64,1.64,0,0,1,32,24.92a1.62,1.62,0,0,1,1.64,1.5v9.82a.74.74,0,0,0,.51.7.73.73,0,0,0,.82-.28,1.86,1.86,0,0,1,3,0,.75.75,0,0,0,.54.31.77.77,0,0,0,.58-.21,1.8,1.8,0,0,1,1.29-.56,2,2,0,0,1,1.87,1.65.7.7,0,0,0,.42.52.72.72,0,0,0,.67,0,1.72,1.72,0,0,1,.9-.25,1.9,1.9,0,0,1,1.41.48,2.29,2.29,0,0,1,.51,1.51V56.67H33.67A13.34,13.34,0,0,0,25.72,51.21Zm20.5,11.32H34V58.14H46.22Zm1.46-22.4a3.68,3.68,0,0,0-.9-2.55,3.27,3.27,0,0,0-2.48-.95,3.32,3.32,0,0,0-.83.11,3.39,3.39,0,0,0-3-2,3.19,3.19,0,0,0-1.72.5,3.32,3.32,0,0,0-3.6-.56V26.42a3.11,3.11,0,0,0-6.22,0V45.56A13.25,13.25,0,0,0,24.54,45a9.4,9.4,0,0,0-3.74.93H9.28V6.35H54.72V45.92h-7Zm14.85,8.48a2.2,2.2,0,0,1-2.2,2.2H47.68V47.39h7.77a.73.73,0,0,0,.73-.73v-41a.74.74,0,0,0-.73-.74H8.55a.74.74,0,0,0-.73.74v41a.73.73,0,0,0,.73.73H19a3.05,3.05,0,0,0-.66,1.74,6.7,6.7,0,0,0,.12,1.68H3.66a2.2,2.2,0,0,1-2.19-2.2V3.66A2.19,2.19,0,0,1,3.66,1.47H60.33a2.19,2.19,0,0,1,2.2,2.19Z"/><path class="cls-3" d="M38.72,14.5A13.44,13.44,0,1,0,25.28,37.77a.73.73,0,0,0,1-.27.73.73,0,0,0-.27-1,12,12,0,1,1,16.35-4.38.73.73,0,0,0,.27,1,.72.72,0,0,0,1-.27A13.42,13.42,0,0,0,38.72,14.5Z"/><path class="cls-3" d="M26,20.09a8.56,8.56,0,0,0,0,12.09.73.73,0,0,0,1,0,.72.72,0,0,0,0-1,7.08,7.08,0,1,1,10,0,.72.72,0,0,0,0,1,.71.71,0,0,0,1,0,8.53,8.53,0,0,0,0-12.09A8.56,8.56,0,0,0,26,20.09Z"/><path class="cls-3" d="M59.36,30.78a.73.73,0,0,0,.73-.73V22.23a.73.73,0,0,0-1.46,0v7.82A.73.73,0,0,0,59.36,30.78Z"/><path class="cls-3" d="M4.64,23.45a.73.73,0,0,0-.73.73v3.91a.73.73,0,0,0,1.46,0V24.18A.73.73,0,0,0,4.64,23.45Z"/><path class="cls-3" d="M4.64,14.66a.73.73,0,0,0-.73.73V19.3a.73.73,0,0,0,1.46,0V15.39A.72.72,0,0,0,4.64,14.66Z"/><path class="cls-3" d="M4.64,32.25a.73.73,0,0,0-.73.73v3.91a.73.73,0,0,0,1.46,0V33A.72.72,0,0,0,4.64,32.25Z"/><path class="cls-3" d="M59.36,33a1,1,0,1,0,1,1A1,1,0,0,0,59.36,33Z"/><path class="cls-3" d="M16.36,62.53H1.47v-6.1a.73.73,0,0,0-.74-.73.73.73,0,0,0-.73.73v6.84A.73.73,0,0,0,.73,64H16.36a.74.74,0,1,0,0-1.47Z"/><path class="cls-3" d="M25.45,62.53h-4.2a.74.74,0,0,0,0,1.47h4.2a.74.74,0,1,0,0-1.47Z"/><path class="cls-3" d="M63.27,57.65a.74.74,0,0,0-.74.73v4.15H51.84a.74.74,0,1,0,0,1.47H63.27a.73.73,0,0,0,.73-.73V58.38A.73.73,0,0,0,63.27,57.65Z"/></g></g></svg>